<svg xmlns="http://www.w3.org/2000/svg" viewBox="0 0 112 34"><defs><style>.a{fill:#fff;}</style></defs><title>blocks_logo_white</title><path class="a" d="M21.74,10H16.25v5.41h5.54a2.7,2.7,0,0,0,0-5.4Z"/><ellipse class="a" cx="46.4" cy="19.58" rx="4.46" ry="4.55"/><path class="a" d="M21.74,18.55H16.25V24h5.54a2.7,2.7,0,0,0,0-5.4Z"/><path class="a" d="M102.91,0H.11V24.73A9.24,9.24,0,0,0,9.31,34h102.8V9.27A9.24,9.24,0,0,0,102.91,0ZM28.51,21.22a6.06,6.06,0,0,1-6,6.09H12.16V6.7H22.47A6.09,6.09,0,0,1,26.82,17,6.09,6.09,0,0,1,28.51,21.22Zm7.16,6.09H31.58V6.7h4.09Zm10.73.52a8.24,8.24,0,1,1,8.18-8.24A8.22,8.22,0,0,1,46.4,27.82Zm18.4-3.56a4.62,4.62,0,0,0,3.41-1.59l.5-.57,2.55,2.57-.47.51a8.24,8.24,0,1,1,0-11.21l.47.51L68.72,17l-.51-.57a4.62,4.62,0,1,0-3.41,7.78Zm17.89,3-5.11-5.15V27.3H73.49V6.7h4.09V17l5.11-5.15H87.8l-7.67,7.73L87.8,27.3Zm12.69-9.24c3.24.77,6.44,1.8,6.44,4.81,0,2.45-3.26,4.94-6.86,4.94a8.18,8.18,0,0,1-7.08-4.12l3.18-1.89A4.53,4.53,0,0,0,95,24.13c1.47,0,2.85-.78,2.85-1.6S96.06,21.5,94,21c-2.64-.67-5.86-1.56-5.86-4.7,0-2.85,3.69-4.94,6.81-4.94A8.33,8.33,0,0,1,102,15.45l-3.18,1.89A4.47,4.47,0,0,0,95,15c-1.35,0-2.85.65-2.85,1.53S93.55,17.63,95.38,18.06Z"/></svg>